#N canvas 907 396 1037 806 12;
#X obj 211 7 loadbang;
#X obj 211 32 bng 15 250 50 0 empty empty empty 17 7 0 10 #fcfcfc #000000 #000000;
#X obj 224 59 f \$1;
#X obj 119 540 outlet~;
#X text 259 61 \$1 is v;
#X obj 52 342 tabread4~ sampleloop;
#X obj 52 282 phasor~ 0.1;
#X floatatom 222 86 5 0 0 0 - - - 0;
#X obj 52 172 phasor~;
#X obj 133 85 samplerate~;
#X floatatom 80 144 0 0 0 0 - - - 0;
#X obj 116 410 *~;
#X msg 64 46 3.14159;
#X obj 64 73 v pi;
#X obj 257 300 expr~ 0.5*cos(if((pi*bw*.5*log($v1)/log(2)) > pi \, pi \, if((pi*bw*.5*log($v1)/log(2)) < -pi \, -pi \, pi*bw*.5*log($v1)/log(2))))+0.5, f 75;
#X obj 117 440 lop~ 20000;
#X obj 118 464 lop~ 20000;
#X obj 118 491 hip~ 5;
#X obj 119 515 hip~ 5;
#X obj 52 202 expr~ $v1*tao;
#X obj 52 114 expr $f1/tao;
#X obj 52 312 expr~ $v1*T;
#X obj 52 236 expr~ if(dir==0 \, 1/(((T*log(2))/tao)*pow(2 \, ($v1/tao)+$f2)) \, ((T*log(2))/tao)*pow(2 \, ($v1/tao)+$f2)), f 105;
#X connect 0 0 1 0;
#X connect 1 0 2 0;
#X connect 1 0 9 0;
#X connect 1 0 12 0;
#X connect 2 0 7 0;
#X connect 2 0 22 1;
#X connect 5 0 11 0;
#X connect 6 0 21 0;
#X connect 8 0 19 0;
#X connect 9 0 20 0;
#X connect 11 0 15 0;
#X connect 12 0 13 0;
#X connect 14 0 11 1;
#X connect 15 0 16 0;
#X connect 16 0 17 0;
#X connect 17 0 18 0;
#X connect 18 0 3 0;
#X connect 19 0 22 0;
#X connect 20 0 10 0;
#X connect 20 0 8 0;
#X connect 21 0 5 0;
#X connect 22 0 6 0;
#X connect 22 0 14 0;
