#N canvas 991 24 958 980 12;
#X obj 130 229 soundfiler;
#X obj 395 554 *~;
#X obj 496 416 hsl 128 15 0.01 1 1 0 empty empty volume -2 -8 0 10 #fcfcfc #000000 #000000 0 1;
#X obj 130 61 array define sampleloop;
#X msg 130 208 read -resize \$1 sampleloop;
#X floatatom 131 277 0 0 0 0 - - - 0;
#X msg 392 328 vis 2 1;
#X obj 182 282 loadbang;
#X obj 182 306 bng 19 250 50 0 empty empty empty 0 -10 0 12 #fcfcfc #000000 #000000;
#X obj 182 333 samplerate~;
#X obj 101 469 expr $f1*$f2;
#X floatatom 154 437 0 0 0 1 s - - 0;
#X floatatom 424 436 5 0 0 1 bandwidth - - 0;
#X obj 313 308 loadbang;
#X obj 313 336 bng 19 250 50 0 empty empty empty 0 -10 0 12 #fcfcfc #000000 #000000;
#X msg 154 371 20;
#X msg 313 362 2;
#X obj 194 467 v dir;
#X obj 224 436 tgl 19 0 empty empty -accel/accel 20 10 0 12 #fcfcfc #000000 #000000 0 1;
#X obj 395 498 clone -s 0 c_RissetRhythm 10;
#X floatatom 538 437 5 1 10 1 streams - - 0;
#X msg 409 462 resize \$1;
#X obj 100 494 v tao;
#X obj 178 258 v T;
#X msg 407 370 10;
#X obj 160 404 bng 19 250 50 0 empty empty loop 21 10 0 12 #fcfcfc #000000 #000000;
#X obj 395 584 outlet~;
#X obj 302 466 v bw;
#X obj 129 144 openpanel;
#X connect 0 0 5 0;
#X connect 0 0 23 0;
#X connect 1 0 26 0;
#X connect 2 0 1 1;
#X connect 4 0 0 0;
#X connect 5 0 8 0;
#X connect 6 0 19 0;
#X connect 7 0 8 0;
#X connect 8 0 9 0;
#X connect 8 0 15 0;
#X connect 9 0 10 1;
#X connect 10 0 22 0;
#X connect 11 0 10 0;
#X connect 12 0 27 0;
#X connect 13 0 14 0;
#X connect 14 0 16 0;
#X connect 14 0 24 0;
#X connect 15 0 11 0;
#X connect 16 0 12 0;
#X connect 18 0 17 0;
#X connect 19 0 1 0;
#X connect 20 0 21 0;
#X connect 21 0 19 0;
#X connect 24 0 20 0;
#X connect 25 0 28 0;
#X connect 28 0 4 0;
#X coords 0 -1 1 1 550 60 1 100 400;
